<svg width="524" height="191" viewBox="0 0 524 191" fill="none" xmlns="http://www.w3.org/2000/svg">
<path fill-rule="evenodd" clip-rule="evenodd" d="M197.44 119.88L170.5 49.1201H186.98L206.1 101.5L224.44 49.1201H240.64L213.86 119.88H197.44Z" fill="white"/>
<path d="M263.04 49.1201H247.79V119.88H263.04V49.1201Z" fill="white"/>
<path fill-rule="evenodd" clip-rule="evenodd" d="M305.44 101.5L286.33 49.1201H269.85L296.79 119.88H313.21L331.3 72.0801L323.2 50.8101L305.44 101.5Z" fill="white"/>
<path fill-rule="evenodd" clip-rule="evenodd" d="M411.33 49.1201L384.39 119.88H400.87L419.99 67.5001L438.34 119.88H454.53L427.75 49.1201H411.33Z" fill="white"/>
<path fill-rule="evenodd" clip-rule="evenodd" d="M354.18 119.88L327.24 49.1201H343.71L362.83 101.5L381.18 49.1201H397.38L370.6 119.88H354.18Z" fill="white"/>
<path fill-rule="evenodd" clip-rule="evenodd" d="M467.48 119.88H485.66L474.11 92.1999C474.11 92.1999 489.36 90.4799 487.62 72.4399C485.88 54.3999 471.34 47.9999 466.94 47.9999C462.54 47.9999 437.84 47.8999 437.84 47.8999L443.06 60.8999L465.22 61.1999C465.22 61.1999 475.22 63.3299 475.22 72.9299C475.22 82.5299 464.62 81.5699 464.62 81.5699H452.23L467.48 119.88Z" fill="white"/>
<path fill-rule="evenodd" clip-rule="evenodd" d="M107.87 88.2698L96.05 95.0898V129.33L88.64 129.46L88.83 60.8798L82.73 56.6298V41.6298L107.73 24.7898L107.91 24.8998V88.2698H107.87ZM63.87 101.61L59.38 103.79V104.24L59.23 104.33V129.75H49.83V64.8298L66.14 53.6598L67.08 99.7398L63.89 101.61H63.87ZM141.36 55.8098V60.4998L156.05 68.4998V129L141.36 128.9H135.79V36.9998L107.87 20.8198V20.9998L107.61 20.8298L79.43 39.8298V54.3398L69.34 47.3398V47.4698L46.54 63.0898V133.09H63V131.18H79.43V131.26V132.94L101.84 132.55L102.42 130.92H131.71V132.98L160.22 133.16V66.1598L141.36 55.8098Z" fill="white"/>
<path d="M500.78 129.65H33V133.16H500.78V129.65Z" fill="white"/>
<path fill-rule="evenodd" clip-rule="evenodd" d="M496.16 146.48L494.37 147.93C493.99 147.509 493.561 147.136 493.09 146.82C492.526 146.549 491.902 146.423 491.277 146.455C490.652 146.486 490.044 146.674 489.51 147C489.279 147.153 489.09 147.361 488.961 147.606C488.832 147.85 488.766 148.123 488.77 148.4C488.772 148.651 488.831 148.898 488.942 149.123C489.052 149.348 489.213 149.545 489.41 149.7C490.078 150.222 490.819 150.643 491.61 150.95C492.451 151.3 493.261 151.721 494.03 152.21C494.568 152.563 495.047 152.999 495.45 153.5C495.805 153.947 496.082 154.451 496.27 154.99C496.452 155.521 496.543 156.079 496.54 156.64C496.552 157.288 496.428 157.932 496.177 158.53C495.925 159.127 495.552 159.666 495.08 160.11C494.62 160.58 494.068 160.95 493.46 161.198C492.851 161.445 492.197 161.565 491.54 161.55C490.258 161.569 489.003 161.177 487.96 160.43C486.85 159.568 486.021 158.395 485.58 157.06L487.78 156.42C488.58 158.27 489.78 159.19 491.45 159.19C492.187 159.221 492.906 158.958 493.45 158.46C493.709 158.232 493.915 157.95 494.053 157.634C494.191 157.318 494.259 156.975 494.25 156.63C494.241 156.156 494.095 155.694 493.83 155.3C493.576 154.868 493.236 154.494 492.83 154.2C492.199 153.8 491.529 153.465 490.83 153.2C490.11 152.913 489.417 152.561 488.76 152.15C488.281 151.849 487.853 151.474 487.49 151.04C487.166 150.653 486.902 150.218 486.71 149.75C486.539 149.314 486.454 148.849 486.46 148.38C486.456 147.809 486.579 147.243 486.819 146.725C487.06 146.206 487.412 145.747 487.85 145.38C488.782 144.56 489.989 144.121 491.23 144.15C492.15 144.157 493.06 144.355 493.9 144.73C494.794 145.109 495.574 145.716 496.16 146.49V146.48ZM477.52 152.86C477.536 152.008 477.374 151.162 477.043 150.377C476.712 149.591 476.221 148.884 475.6 148.3C474.972 147.694 474.229 147.218 473.415 146.9C472.602 146.582 471.733 146.43 470.86 146.45C470.01 146.438 469.166 146.599 468.38 146.924C467.594 147.249 466.883 147.731 466.29 148.34C465.677 148.921 465.191 149.622 464.862 150.4C464.533 151.178 464.369 152.016 464.38 152.86C464.372 153.714 464.546 154.56 464.891 155.341C465.236 156.122 465.743 156.821 466.38 157.39C467.669 158.617 469.391 159.282 471.17 159.24C472.858 159.225 474.473 158.548 475.668 157.355C476.862 156.162 477.542 154.548 477.56 152.86H477.52ZM462.07 152.73C462.059 151.591 462.288 150.462 462.741 149.416C463.194 148.37 463.861 147.432 464.7 146.66C465.536 145.842 466.526 145.198 467.612 144.766C468.699 144.333 469.861 144.121 471.03 144.14C472.185 144.125 473.331 144.343 474.4 144.781C475.469 145.22 476.438 145.869 477.25 146.69C478.076 147.455 478.733 148.384 479.181 149.417C479.628 150.45 479.856 151.564 479.85 152.69C479.874 153.854 479.658 155.01 479.216 156.087C478.774 157.164 478.115 158.139 477.28 158.95C475.597 160.602 473.333 161.528 470.975 161.528C468.617 161.528 466.353 160.602 464.67 158.95C463.832 158.142 463.168 157.17 462.721 156.095C462.274 155.02 462.052 153.864 462.07 152.7V152.73ZM453.44 144.66H455.64V161H453.44V144.66ZM439.5 146.66V152.37C442.753 152.437 444.377 151.48 444.37 149.5C444.394 148.88 444.191 148.272 443.8 147.79C443.4 147.339 442.868 147.024 442.28 146.89C441.364 146.713 440.432 146.636 439.5 146.66V146.66ZM437.29 144.66H440.79C442.306 144.604 443.795 145.078 445 146C445.522 146.392 445.943 146.901 446.23 147.487C446.517 148.073 446.661 148.718 446.65 149.37C446.662 150.434 446.285 151.465 445.59 152.27C444.715 153.202 443.56 153.824 442.3 154.04L446.96 161.04H444.43L440 154.29H439.51V161H437.3V144.66H437.29ZM422.37 143L424.05 139.43H427.05L424.25 143H422.37ZM423.76 149.14L421.18 155H426.36L423.76 149.19V149.14ZM423.76 144L431.37 161H429.08L427.21 156.81H420.36L418.49 161H416.2L423.75 144H423.76ZM408.43 144.63H410.63V161H408.43V144.66V144.63ZM395.27 144.63H397.47V158.76H402.71V161H395.27V144.66V144.63ZM385.62 144.63H387.83V161H385.62V144.66V144.63ZM371.68 153.39V159H371.85C373.73 159 375 158.69 375.69 158.07C375.982 157.845 376.223 157.56 376.395 157.234C376.568 156.908 376.668 156.548 376.69 156.18C376.686 155.776 376.577 155.38 376.376 155.03C376.175 154.68 375.887 154.387 375.54 154.18C374.589 153.628 373.498 153.364 372.4 153.42L371.68 153.39ZM371.68 146.61V151.45C372.653 151.493 373.617 151.246 374.45 150.74C374.763 150.54 375.019 150.263 375.194 149.936C375.369 149.608 375.457 149.241 375.45 148.87C375.454 148.543 375.378 148.219 375.228 147.928C375.078 147.637 374.859 147.387 374.59 147.2C373.896 146.759 373.082 146.542 372.26 146.58C372.08 146.568 371.9 146.568 371.72 146.58L371.68 146.61ZM369.48 144.61H372C373.45 144.55 374.882 144.941 376.1 145.73C376.581 146.023 376.98 146.434 377.258 146.924C377.537 147.414 377.685 147.967 377.69 148.53C377.663 149.263 377.435 149.974 377.031 150.586C376.627 151.198 376.063 151.687 375.4 152C377.813 152.82 379.017 154.247 379.01 156.28C379.013 156.962 378.842 157.633 378.513 158.229C378.184 158.826 377.708 159.329 377.13 159.69C375.633 160.619 373.89 161.072 372.13 160.99H369.49V144.66L369.48 144.61ZM360.36 152.81C360.376 151.957 360.213 151.11 359.88 150.325C359.548 149.539 359.054 148.832 358.43 148.25C357.802 147.643 357.06 147.166 356.246 146.848C355.432 146.531 354.563 146.378 353.69 146.4C352.84 146.388 351.996 146.549 351.21 146.874C350.424 147.199 349.713 147.681 349.12 148.29C348.508 148.872 348.024 149.573 347.697 150.351C347.37 151.129 347.207 151.966 347.22 152.81C347.212 153.664 347.386 154.51 347.731 155.291C348.076 156.072 348.583 156.771 349.22 157.34C350.509 158.566 352.232 159.231 354.01 159.19C355.698 159.172 357.313 158.495 358.508 157.303C359.704 156.111 360.387 154.498 360.41 152.81H360.36ZM344.91 152.68C344.899 151.541 345.128 150.412 345.581 149.366C346.034 148.32 346.701 147.381 347.54 146.61C348.376 145.792 349.366 145.148 350.452 144.716C351.539 144.283 352.701 144.071 353.87 144.09C355.023 144.076 356.168 144.294 357.235 144.733C358.302 145.171 359.269 145.82 360.08 146.64C360.907 147.405 361.566 148.333 362.015 149.366C362.465 150.399 362.694 151.514 362.69 152.64C362.726 153.822 362.515 154.999 362.068 156.094C361.622 157.19 360.952 158.18 360.1 159C358.417 160.652 356.153 161.578 353.795 161.578C351.437 161.578 349.173 160.652 347.49 159C346.653 158.192 345.991 157.219 345.546 156.144C345.1 155.069 344.88 153.914 344.9 152.75L344.91 152.68ZM335.3 144L339.72 161H337.58L334.87 150.54L330.29 161.63L325.69 150.51L323 161H320.86L325.24 144L330.29 156.2L335.29 144H335.3ZM312.71 144.68H314.91V161H312.71V144.66V144.68ZM295.35 146.5L293.56 147.95C293.183 147.527 292.753 147.154 292.28 146.84C291.716 146.569 291.092 146.443 290.467 146.475C289.842 146.506 289.234 146.694 288.7 147.02C288.47 147.174 288.283 147.383 288.153 147.627C288.024 147.871 287.958 148.144 287.96 148.42C287.965 148.671 288.025 148.917 288.135 149.141C288.246 149.366 288.405 149.564 288.6 149.72C289.271 150.238 290.012 150.658 290.8 150.97C291.642 151.318 292.452 151.739 293.22 152.23C293.758 152.583 294.237 153.019 294.64 153.52C294.995 153.967 295.272 154.471 295.46 155.01C295.65 155.539 295.745 156.098 295.74 156.66C295.75 157.308 295.626 157.951 295.374 158.548C295.123 159.146 294.75 159.684 294.28 160.13C293.817 160.599 293.264 160.969 292.654 161.216C292.043 161.464 291.389 161.584 290.73 161.57C289.45 161.593 288.198 161.2 287.16 160.45C286.042 159.593 285.209 158.418 284.77 157.08L286.98 156.44C287.78 158.294 289 159.217 290.64 159.21C291.377 159.241 292.096 158.978 292.64 158.48C292.901 158.254 293.108 157.972 293.246 157.655C293.384 157.339 293.451 156.995 293.44 156.65C293.429 156.177 293.287 155.717 293.03 155.32C292.774 154.89 292.434 154.516 292.03 154.22C291.398 153.822 290.728 153.487 290.03 153.22C289.308 152.93 288.612 152.579 287.95 152.17C287.471 151.869 287.043 151.494 286.68 151.06C286.356 150.673 286.092 150.238 285.9 149.77C285.734 149.333 285.649 148.868 285.65 148.4C285.648 147.828 285.773 147.262 286.015 146.744C286.257 146.225 286.61 145.766 287.05 145.4C287.977 144.579 289.182 144.139 290.42 144.17C291.344 144.178 292.256 144.376 293.1 144.75C293.993 145.126 294.77 145.734 295.35 146.51V146.5ZM276.71 152.88C276.726 152.028 276.564 151.182 276.233 150.397C275.902 149.611 275.411 148.904 274.79 148.32C274.162 147.713 273.42 147.236 272.606 146.918C271.792 146.601 270.923 146.448 270.05 146.47C269.2 146.458 268.356 146.619 267.57 146.944C266.784 147.269 266.073 147.751 265.48 148.36C264.867 148.941 264.381 149.642 264.052 150.42C263.723 151.198 263.559 152.036 263.57 152.88C263.562 153.734 263.736 154.58 264.081 155.361C264.426 156.142 264.933 156.841 265.57 157.41C266.859 158.637 268.581 159.302 270.36 159.26C272.048 159.245 273.663 158.568 274.858 157.375C276.052 156.182 276.732 154.568 276.75 152.88H276.71ZM261.27 152.75C261.257 151.61 261.485 150.481 261.938 149.435C262.391 148.389 263.06 147.45 263.9 146.68C264.735 145.861 265.725 145.216 266.812 144.784C267.898 144.351 269.06 144.139 270.23 144.16C271.383 144.146 272.528 144.364 273.595 144.803C274.662 145.241 275.629 145.89 276.44 146.71C277.267 147.475 277.926 148.403 278.375 149.436C278.825 150.469 279.054 151.584 279.05 152.71C279.074 153.875 278.857 155.032 278.413 156.109C277.969 157.186 277.307 158.16 276.47 158.97C274.787 160.622 272.523 161.548 270.165 161.548C267.807 161.548 265.543 160.622 263.86 158.97C263.023 158.162 262.361 157.189 261.916 156.114C261.47 155.039 261.25 153.884 261.27 152.72V152.75ZM246.54 144.68H256.45V146.92H252.58V161H250.38V146.9H246.54V144.66V144.68ZM226.54 144.03L238.46 156.45V144.66H240.66V161.79L228.74 149.4V161H226.54V144V144.03ZM211.54 144.68H220.48V146.92H213.74V150.92H220.48V153.16H213.74V158.76H220.48V161H211.54V144.66V144.68ZM201.44 144L205.88 161H203.75L201 150.57L196.42 161.66L191.82 150.54L189.16 161H187L191.4 143.95L196.45 156.15L201.45 143.95L201.44 144ZM178.85 144.68H181.06V161H178.85V144.66V144.68ZM161.85 146.87V158.81H161.98C163.211 158.838 164.441 158.765 165.66 158.59C166.505 158.426 167.306 158.085 168.01 157.59C168.756 157.08 169.364 156.393 169.78 155.59C170.267 154.621 170.487 153.54 170.418 152.457C170.35 151.375 169.995 150.33 169.39 149.43C168.783 148.518 167.905 147.818 166.88 147.43C165.611 147.039 164.287 146.864 162.96 146.91L161.85 146.87ZM159.65 144.68H163.56C166.66 144.68 168.963 145.51 170.47 147.17C171.93 148.709 172.742 150.749 172.74 152.87C172.745 155.005 171.903 157.054 170.4 158.57C168.83 160.22 166.57 161.05 163.59 161.05H159.65V144.66V144.68ZM138.65 144.03L150.57 156.45V144.66H152.78V161.79L140.9 149.4V161H138.7V144L138.65 144.03ZM123.65 144.68H132.59V146.92H125.85V150.92H132.59V153.16H125.85V158.76H132.59V161H123.65V144.66V144.68ZM108.72 144.68H117.67V146.92H111V150.92H117.74V153.16H111V158.76H117.74V161H108.79V144.66L108.72 144.68ZM94.91 146.68V152.39C98.1633 152.457 99.7867 151.5 99.78 149.52C99.8036 148.9 99.601 148.292 99.21 147.81C98.8136 147.359 98.2853 147.044 97.7 146.91C96.781 146.733 95.8456 146.656 94.91 146.68V146.68ZM92.71 144.68H96.2C97.7272 144.612 99.2304 145.078 100.45 146C100.969 146.393 101.388 146.903 101.673 147.489C101.958 148.075 102.101 148.719 102.09 149.37C102.114 150.425 101.76 151.454 101.09 152.27C100.21 153.201 99.0521 153.821 97.79 154.04L102.45 161.04H99.94L95.47 154.3H95V161H92.8V144.66L92.71 144.68ZM78.56 146.68V152.42C79.8204 152.482 81.0768 152.235 82.22 151.7C82.6043 151.482 82.9191 151.16 83.1279 150.771C83.3367 150.381 83.431 149.941 83.4 149.5C83.406 149.122 83.3294 148.747 83.1757 148.402C83.022 148.057 82.7948 147.749 82.51 147.5C81.91 146.94 80.59 146.66 78.51 146.66L78.56 146.68ZM76.35 144.68H79.59C81.2005 144.587 82.7937 145.054 84.1 146C84.6331 146.39 85.0642 146.902 85.3567 147.494C85.6492 148.086 85.7944 148.74 85.78 149.4C85.7785 150.084 85.6166 150.757 85.3075 151.367C84.9983 151.976 84.5505 152.505 84 152.91C82.4157 153.968 80.5181 154.455 78.62 154.29V161H76.42V144.66L76.35 144.68ZM65.63 144L70.05 161H67.92L65.21 150.54L60.63 161.63L56 150.54L53.33 161H51.18L55.57 144L60.57 156.2L65.57 144H65.63ZM37.24 144.68H46.18V146.92H39.44V150.92H46.18V153.16H39.44V158.76H46.18V161H37.24V144.68Z" fill="white"/>
</svg>
