<svg width="253" height="94" viewBox="0 0 253 94" fill="none" xmlns="http://www.w3.org/2000/svg">
<path d="M77 19H243C248.523 19 253 23.4772 253 29V56C253 61.5229 248.523 66 243 66H77V19Z" fill="#EFF0E1"/>
<path d="M99.3682 34.4893L102.301 26.0469H103.729L100.045 36H99.0264L99.3682 34.4893ZM96.627 26.0469L99.5322 34.4893L99.8945 36H98.876L95.1982 26.0469H96.627ZM107.646 36.1367C107.132 36.1367 106.664 36.0501 106.245 35.877C105.83 35.6992 105.473 35.4508 105.172 35.1318C104.876 34.8128 104.648 34.4346 104.488 33.9971C104.329 33.5596 104.249 33.0811 104.249 32.5615V32.2744C104.249 31.6729 104.338 31.1374 104.516 30.668C104.693 30.194 104.935 29.793 105.24 29.4648C105.546 29.1367 105.892 28.8883 106.279 28.7197C106.667 28.5511 107.068 28.4668 107.482 28.4668C108.011 28.4668 108.467 28.5579 108.85 28.7402C109.237 28.9225 109.554 29.1777 109.8 29.5059C110.046 29.8294 110.228 30.2122 110.347 30.6543C110.465 31.0918 110.524 31.5703 110.524 32.0898V32.6572H105.001V31.625H109.26V31.5293C109.242 31.2012 109.173 30.8822 109.055 30.5723C108.941 30.2624 108.758 30.0072 108.508 29.8066C108.257 29.6061 107.915 29.5059 107.482 29.5059C107.195 29.5059 106.931 29.5674 106.689 29.6904C106.448 29.8089 106.241 29.9867 106.067 30.2236C105.894 30.4606 105.76 30.75 105.664 31.0918C105.568 31.4336 105.521 31.8278 105.521 32.2744V32.5615C105.521 32.9124 105.568 33.2428 105.664 33.5527C105.764 33.8581 105.908 34.127 106.095 34.3594C106.286 34.5918 106.516 34.7741 106.785 34.9062C107.059 35.0384 107.368 35.1045 107.715 35.1045C108.161 35.1045 108.54 35.0133 108.85 34.8311C109.16 34.6488 109.431 34.4049 109.663 34.0996L110.429 34.708C110.269 34.9495 110.066 35.1797 109.82 35.3984C109.574 35.6172 109.271 35.7949 108.911 35.9316C108.556 36.0684 108.134 36.1367 107.646 36.1367ZM113.266 30.1826V36H112.001V28.6035H113.197L113.266 30.1826ZM112.965 32.0215L112.438 32.001C112.443 31.4951 112.518 31.028 112.664 30.5996C112.81 30.1667 113.015 29.7907 113.279 29.4717C113.544 29.1527 113.858 28.9066 114.223 28.7334C114.592 28.5557 115 28.4668 115.446 28.4668C115.811 28.4668 116.139 28.5169 116.431 28.6172C116.722 28.7129 116.971 28.8678 117.176 29.082C117.385 29.2962 117.545 29.5742 117.654 29.916C117.764 30.2533 117.818 30.6657 117.818 31.1533V36H116.547V31.1396C116.547 30.7523 116.49 30.4424 116.376 30.21C116.262 29.973 116.096 29.8021 115.877 29.6973C115.658 29.5879 115.389 29.5332 115.07 29.5332C114.756 29.5332 114.469 29.5993 114.209 29.7314C113.954 29.8636 113.733 30.0459 113.546 30.2783C113.364 30.5107 113.22 30.7773 113.115 31.0781C113.015 31.3743 112.965 31.6888 112.965 32.0215ZM124.401 34.5645V25.5H125.673V36H124.511L124.401 34.5645ZM119.425 32.3838V32.2402C119.425 31.6751 119.493 31.1624 119.63 30.7021C119.771 30.2373 119.969 29.8385 120.225 29.5059C120.484 29.1732 120.792 28.918 121.147 28.7402C121.507 28.5579 121.909 28.4668 122.351 28.4668C122.815 28.4668 123.221 28.5488 123.567 28.7129C123.918 28.8724 124.215 29.1071 124.456 29.417C124.702 29.7223 124.896 30.0915 125.037 30.5244C125.178 30.9574 125.276 31.4473 125.331 31.9941V32.623C125.281 33.1654 125.183 33.653 125.037 34.0859C124.896 34.5189 124.702 34.888 124.456 35.1934C124.215 35.4987 123.918 35.7334 123.567 35.8975C123.216 36.057 122.806 36.1367 122.337 36.1367C121.904 36.1367 121.507 36.0433 121.147 35.8564C120.792 35.6696 120.484 35.4076 120.225 35.0703C119.969 34.7331 119.771 34.3366 119.63 33.8809C119.493 33.4206 119.425 32.9215 119.425 32.3838ZM120.696 32.2402V32.3838C120.696 32.7529 120.733 33.0993 120.806 33.4229C120.883 33.7464 121.002 34.0312 121.161 34.2773C121.321 34.5234 121.523 34.7171 121.77 34.8584C122.016 34.9951 122.31 35.0635 122.651 35.0635C123.071 35.0635 123.415 34.9746 123.684 34.7969C123.957 34.6191 124.176 34.3844 124.34 34.0928C124.504 33.8011 124.632 33.4844 124.723 33.1426V31.4951C124.668 31.2445 124.588 31.0029 124.483 30.7705C124.383 30.5335 124.251 30.3239 124.087 30.1416C123.927 29.9548 123.729 29.8066 123.492 29.6973C123.26 29.5879 122.984 29.5332 122.665 29.5332C122.319 29.5332 122.02 29.6061 121.77 29.752C121.523 29.8932 121.321 30.0892 121.161 30.3398C121.002 30.5859 120.883 30.873 120.806 31.2012C120.733 31.5247 120.696 31.8711 120.696 32.2402ZM132.003 34.7354V30.9277C132.003 30.6361 131.944 30.3831 131.825 30.1689C131.711 29.9502 131.538 29.7816 131.306 29.6631C131.073 29.5446 130.786 29.4854 130.444 29.4854C130.125 29.4854 129.845 29.54 129.604 29.6494C129.367 29.7588 129.18 29.9023 129.043 30.0801C128.911 30.2578 128.845 30.4492 128.845 30.6543H127.58C127.58 30.39 127.648 30.1279 127.785 29.8682C127.922 29.6084 128.118 29.3737 128.373 29.1641C128.633 28.9499 128.943 28.7812 129.303 28.6582C129.667 28.5306 130.073 28.4668 130.52 28.4668C131.057 28.4668 131.531 28.5579 131.941 28.7402C132.356 28.9225 132.68 29.1982 132.912 29.5674C133.149 29.932 133.268 30.39 133.268 30.9414V34.3867C133.268 34.6328 133.288 34.8949 133.329 35.1729C133.375 35.4508 133.441 35.6901 133.527 35.8906V36H132.208C132.144 35.8542 132.094 35.6605 132.058 35.4189C132.021 35.1729 132.003 34.945 132.003 34.7354ZM132.222 31.5156L132.235 32.4043H130.957C130.597 32.4043 130.276 32.4339 129.993 32.4932C129.711 32.5479 129.474 32.6322 129.282 32.7461C129.091 32.86 128.945 33.0036 128.845 33.1768C128.744 33.3454 128.694 33.5436 128.694 33.7715C128.694 34.0039 128.747 34.2158 128.852 34.4072C128.956 34.5986 129.114 34.7513 129.323 34.8652C129.537 34.9746 129.799 35.0293 130.109 35.0293C130.497 35.0293 130.839 34.9473 131.135 34.7832C131.431 34.6191 131.666 34.4186 131.839 34.1816C132.017 33.9447 132.112 33.7145 132.126 33.4912L132.666 34.0996C132.634 34.291 132.548 34.5029 132.406 34.7354C132.265 34.9678 132.076 35.1911 131.839 35.4053C131.606 35.6149 131.328 35.7904 131.005 35.9316C130.686 36.0684 130.326 36.1367 129.925 36.1367C129.424 36.1367 128.984 36.0387 128.605 35.8428C128.232 35.6468 127.94 35.3848 127.73 35.0566C127.525 34.724 127.423 34.3525 127.423 33.9424C127.423 33.5459 127.5 33.1973 127.655 32.8965C127.81 32.5911 128.034 32.3382 128.325 32.1377C128.617 31.9326 128.968 31.7777 129.378 31.6729C129.788 31.568 130.246 31.5156 130.752 31.5156H132.222ZM139.563 34.0381C139.563 33.8558 139.522 33.6872 139.44 33.5322C139.363 33.3727 139.201 33.2292 138.955 33.1016C138.714 32.9694 138.349 32.8555 137.861 32.7598C137.451 32.6732 137.08 32.5706 136.747 32.4521C136.419 32.3337 136.139 32.1901 135.906 32.0215C135.678 31.8529 135.503 31.6546 135.38 31.4268C135.257 31.1989 135.195 30.9323 135.195 30.627C135.195 30.3353 135.259 30.0596 135.387 29.7998C135.519 29.54 135.703 29.3099 135.94 29.1094C136.182 28.9089 136.471 28.7516 136.809 28.6377C137.146 28.5238 137.522 28.4668 137.937 28.4668C138.529 28.4668 139.035 28.5716 139.454 28.7812C139.873 28.9909 140.195 29.2712 140.418 29.6221C140.641 29.9684 140.753 30.3535 140.753 30.7773H139.488C139.488 30.5723 139.427 30.374 139.304 30.1826C139.185 29.9867 139.01 29.8249 138.777 29.6973C138.549 29.5697 138.269 29.5059 137.937 29.5059C137.586 29.5059 137.301 29.5605 137.082 29.6699C136.868 29.7747 136.711 29.9092 136.61 30.0732C136.515 30.2373 136.467 30.4105 136.467 30.5928C136.467 30.7295 136.49 30.8525 136.535 30.9619C136.585 31.0667 136.672 31.1647 136.795 31.2559C136.918 31.3424 137.091 31.4245 137.314 31.502C137.538 31.5794 137.823 31.6569 138.169 31.7344C138.775 31.8711 139.274 32.0352 139.666 32.2266C140.058 32.418 140.35 32.6527 140.541 32.9307C140.732 33.2087 140.828 33.5459 140.828 33.9424C140.828 34.266 140.76 34.5622 140.623 34.8311C140.491 35.0999 140.297 35.3324 140.042 35.5283C139.791 35.7197 139.491 35.8701 139.14 35.9795C138.793 36.0843 138.404 36.1367 137.971 36.1367C137.319 36.1367 136.768 36.0205 136.316 35.7881C135.865 35.5557 135.523 35.2549 135.291 34.8857C135.059 34.5166 134.942 34.127 134.942 33.7168H136.214C136.232 34.0632 136.332 34.3389 136.515 34.5439C136.697 34.7445 136.92 34.888 137.185 34.9746C137.449 35.0566 137.711 35.0977 137.971 35.0977C138.317 35.0977 138.606 35.0521 138.839 34.9609C139.076 34.8698 139.256 34.7445 139.379 34.585C139.502 34.4255 139.563 34.2432 139.563 34.0381ZM149.031 36.1367C148.516 36.1367 148.049 36.0501 147.63 35.877C147.215 35.6992 146.857 35.4508 146.557 35.1318C146.26 34.8128 146.033 34.4346 145.873 33.9971C145.714 33.5596 145.634 33.0811 145.634 32.5615V32.2744C145.634 31.6729 145.723 31.1374 145.9 30.668C146.078 30.194 146.32 29.793 146.625 29.4648C146.93 29.1367 147.277 28.8883 147.664 28.7197C148.051 28.5511 148.452 28.4668 148.867 28.4668C149.396 28.4668 149.852 28.5579 150.234 28.7402C150.622 28.9225 150.938 29.1777 151.185 29.5059C151.431 29.8294 151.613 30.2122 151.731 30.6543C151.85 31.0918 151.909 31.5703 151.909 32.0898V32.6572H146.386V31.625H150.645V31.5293C150.626 31.2012 150.558 30.8822 150.439 30.5723C150.326 30.2624 150.143 30.0072 149.893 29.8066C149.642 29.6061 149.3 29.5059 148.867 29.5059C148.58 29.5059 148.316 29.5674 148.074 29.6904C147.833 29.8089 147.625 29.9867 147.452 30.2236C147.279 30.4606 147.145 30.75 147.049 31.0918C146.953 31.4336 146.905 31.8278 146.905 32.2744V32.5615C146.905 32.9124 146.953 33.2428 147.049 33.5527C147.149 33.8581 147.293 34.127 147.479 34.3594C147.671 34.5918 147.901 34.7741 148.17 34.9062C148.443 35.0384 148.753 35.1045 149.1 35.1045C149.546 35.1045 149.924 35.0133 150.234 34.8311C150.544 34.6488 150.815 34.4049 151.048 34.0996L151.813 34.708C151.654 34.9495 151.451 35.1797 151.205 35.3984C150.959 35.6172 150.656 35.7949 150.296 35.9316C149.94 36.0684 149.519 36.1367 149.031 36.1367ZM158.465 26.0469V36H157.146V26.0469H158.465ZM161.938 30.1826V36H160.673V28.6035H161.869L161.938 30.1826ZM161.637 32.0215L161.11 32.001C161.115 31.4951 161.19 31.028 161.336 30.5996C161.482 30.1667 161.687 29.7907 161.951 29.4717C162.215 29.1527 162.53 28.9066 162.895 28.7334C163.264 28.5557 163.672 28.4668 164.118 28.4668C164.483 28.4668 164.811 28.5169 165.103 28.6172C165.394 28.7129 165.643 28.8678 165.848 29.082C166.057 29.2962 166.217 29.5742 166.326 29.916C166.436 30.2533 166.49 30.6657 166.49 31.1533V36H165.219V31.1396C165.219 30.7523 165.162 30.4424 165.048 30.21C164.934 29.973 164.768 29.8021 164.549 29.6973C164.33 29.5879 164.061 29.5332 163.742 29.5332C163.428 29.5332 163.141 29.5993 162.881 29.7314C162.626 29.8636 162.405 30.0459 162.218 30.2783C162.035 30.5107 161.892 30.7773 161.787 31.0781C161.687 31.3743 161.637 31.6888 161.637 32.0215ZM170.298 36H169.033V27.8242C169.033 27.291 169.129 26.8421 169.32 26.4775C169.516 26.1084 169.797 25.8304 170.161 25.6436C170.526 25.4521 170.959 25.3564 171.46 25.3564C171.606 25.3564 171.752 25.3656 171.897 25.3838C172.048 25.402 172.194 25.4294 172.335 25.4658L172.267 26.498C172.171 26.4753 172.062 26.4593 171.938 26.4502C171.82 26.4411 171.701 26.4365 171.583 26.4365C171.314 26.4365 171.082 26.4912 170.886 26.6006C170.694 26.7054 170.549 26.8604 170.448 27.0654C170.348 27.2705 170.298 27.5234 170.298 27.8242V36ZM171.87 28.6035V29.5742H167.864V28.6035H171.87ZM172.943 32.3838V32.2266C172.943 31.6934 173.021 31.1989 173.176 30.7432C173.331 30.2829 173.554 29.8841 173.846 29.5469C174.137 29.2051 174.491 28.9408 174.905 28.7539C175.32 28.5625 175.785 28.4668 176.3 28.4668C176.819 28.4668 177.286 28.5625 177.701 28.7539C178.12 28.9408 178.476 29.2051 178.768 29.5469C179.064 29.8841 179.289 30.2829 179.444 30.7432C179.599 31.1989 179.677 31.6934 179.677 32.2266V32.3838C179.677 32.917 179.599 33.4115 179.444 33.8672C179.289 34.3229 179.064 34.7217 178.768 35.0635C178.476 35.4007 178.123 35.665 177.708 35.8564C177.298 36.0433 176.833 36.1367 176.313 36.1367C175.794 36.1367 175.327 36.0433 174.912 35.8564C174.497 35.665 174.142 35.4007 173.846 35.0635C173.554 34.7217 173.331 34.3229 173.176 33.8672C173.021 33.4115 172.943 32.917 172.943 32.3838ZM174.208 32.2266V32.3838C174.208 32.7529 174.251 33.1016 174.338 33.4297C174.424 33.7533 174.554 34.0404 174.728 34.291C174.905 34.5417 175.126 34.7399 175.391 34.8857C175.655 35.027 175.963 35.0977 176.313 35.0977C176.66 35.0977 176.963 35.027 177.223 34.8857C177.487 34.7399 177.706 34.5417 177.879 34.291C178.052 34.0404 178.182 33.7533 178.269 33.4297C178.36 33.1016 178.405 32.7529 178.405 32.3838V32.2266C178.405 31.862 178.36 31.5179 178.269 31.1943C178.182 30.8662 178.05 30.5768 177.872 30.3262C177.699 30.071 177.48 29.8704 177.216 29.7246C176.956 29.5788 176.651 29.5059 176.3 29.5059C175.953 29.5059 175.648 29.5788 175.384 29.7246C175.124 29.8704 174.905 30.071 174.728 30.3262C174.554 30.5768 174.424 30.8662 174.338 31.1943C174.251 31.5179 174.208 31.862 174.208 32.2266ZM182.527 29.7656V36H181.263V28.6035H182.493L182.527 29.7656ZM184.838 28.5625L184.831 29.7383C184.726 29.7155 184.626 29.7018 184.53 29.6973C184.439 29.6882 184.334 29.6836 184.216 29.6836C183.924 29.6836 183.667 29.7292 183.443 29.8203C183.22 29.9115 183.031 30.0391 182.876 30.2031C182.721 30.3672 182.598 30.5632 182.507 30.791C182.42 31.0143 182.363 31.2604 182.336 31.5293L181.98 31.7344C181.98 31.2878 182.024 30.8685 182.11 30.4766C182.201 30.0846 182.34 29.7383 182.527 29.4375C182.714 29.1322 182.951 28.8952 183.238 28.7266C183.53 28.5534 183.876 28.4668 184.277 28.4668C184.368 28.4668 184.473 28.4782 184.592 28.501C184.71 28.5192 184.792 28.5397 184.838 28.5625ZM187.265 30.0732V36H185.993V28.6035H187.196L187.265 30.0732ZM187.005 32.0215L186.417 32.001C186.422 31.4951 186.488 31.028 186.615 30.5996C186.743 30.1667 186.932 29.7907 187.183 29.4717C187.433 29.1527 187.745 28.9066 188.119 28.7334C188.493 28.5557 188.926 28.4668 189.418 28.4668C189.764 28.4668 190.083 28.5169 190.375 28.6172C190.667 28.7129 190.92 28.8656 191.134 29.0752C191.348 29.2848 191.514 29.5537 191.633 29.8818C191.751 30.21 191.811 30.6064 191.811 31.0713V36H190.546V31.1328C190.546 30.7454 190.48 30.4355 190.348 30.2031C190.22 29.9707 190.038 29.8021 189.801 29.6973C189.564 29.5879 189.286 29.5332 188.967 29.5332C188.593 29.5332 188.281 29.5993 188.03 29.7314C187.78 29.8636 187.579 30.0459 187.429 30.2783C187.278 30.5107 187.169 30.7773 187.101 31.0781C187.037 31.3743 187.005 31.6888 187.005 32.0215ZM191.797 31.3242L190.949 31.584C190.954 31.1784 191.02 30.7887 191.147 30.415C191.28 30.0413 191.469 29.7087 191.715 29.417C191.965 29.1253 192.273 28.8952 192.638 28.7266C193.002 28.5534 193.419 28.4668 193.889 28.4668C194.285 28.4668 194.636 28.5192 194.941 28.624C195.251 28.7288 195.511 28.8906 195.721 29.1094C195.935 29.3236 196.097 29.5993 196.206 29.9365C196.315 30.2738 196.37 30.6748 196.37 31.1396V36H195.099V31.126C195.099 30.7113 195.033 30.39 194.9 30.1621C194.773 29.9297 194.59 29.7679 194.354 29.6768C194.121 29.5811 193.843 29.5332 193.52 29.5332C193.242 29.5332 192.995 29.5811 192.781 29.6768C192.567 29.7725 192.387 29.9046 192.241 30.0732C192.095 30.2373 191.984 30.4264 191.906 30.6406C191.833 30.8548 191.797 31.0827 191.797 31.3242ZM202.646 34.7354V30.9277C202.646 30.6361 202.586 30.3831 202.468 30.1689C202.354 29.9502 202.181 29.7816 201.948 29.6631C201.716 29.5446 201.429 29.4854 201.087 29.4854C200.768 29.4854 200.488 29.54 200.246 29.6494C200.009 29.7588 199.822 29.9023 199.686 30.0801C199.553 30.2578 199.487 30.4492 199.487 30.6543H198.223C198.223 30.39 198.291 30.1279 198.428 29.8682C198.564 29.6084 198.76 29.3737 199.016 29.1641C199.275 28.9499 199.585 28.7812 199.945 28.6582C200.31 28.5306 200.715 28.4668 201.162 28.4668C201.7 28.4668 202.174 28.5579 202.584 28.7402C202.999 28.9225 203.322 29.1982 203.555 29.5674C203.792 29.932 203.91 30.39 203.91 30.9414V34.3867C203.91 34.6328 203.931 34.8949 203.972 35.1729C204.017 35.4508 204.083 35.6901 204.17 35.8906V36H202.851C202.787 35.8542 202.737 35.6605 202.7 35.4189C202.664 35.1729 202.646 34.945 202.646 34.7354ZM202.864 31.5156L202.878 32.4043H201.6C201.24 32.4043 200.918 32.4339 200.636 32.4932C200.353 32.5479 200.116 32.6322 199.925 32.7461C199.733 32.86 199.588 33.0036 199.487 33.1768C199.387 33.3454 199.337 33.5436 199.337 33.7715C199.337 34.0039 199.389 34.2158 199.494 34.4072C199.599 34.5986 199.756 34.7513 199.966 34.8652C200.18 34.9746 200.442 35.0293 200.752 35.0293C201.139 35.0293 201.481 34.9473 201.777 34.7832C202.074 34.6191 202.308 34.4186 202.481 34.1816C202.659 33.9447 202.755 33.7145 202.769 33.4912L203.309 34.0996C203.277 34.291 203.19 34.5029 203.049 34.7354C202.908 34.9678 202.718 35.1911 202.481 35.4053C202.249 35.6149 201.971 35.7904 201.647 35.9316C201.328 36.0684 200.968 36.1367 200.567 36.1367C200.066 36.1367 199.626 36.0387 199.248 35.8428C198.874 35.6468 198.583 35.3848 198.373 35.0566C198.168 34.724 198.065 34.3525 198.065 33.9424C198.065 33.5459 198.143 33.1973 198.298 32.8965C198.453 32.5911 198.676 32.3382 198.968 32.1377C199.259 31.9326 199.61 31.7777 200.021 31.6729C200.431 31.568 200.889 31.5156 201.395 31.5156H202.864ZM208.859 35.0977C209.16 35.0977 209.438 35.0361 209.693 34.9131C209.949 34.79 210.158 34.6214 210.322 34.4072C210.486 34.1885 210.58 33.9401 210.603 33.6621H211.806C211.783 34.0996 211.635 34.5075 211.361 34.8857C211.092 35.2594 210.739 35.5625 210.302 35.7949C209.864 36.0228 209.383 36.1367 208.859 36.1367C208.303 36.1367 207.818 36.0387 207.403 35.8428C206.993 35.6468 206.651 35.3779 206.378 35.0361C206.109 34.6943 205.906 34.3024 205.77 33.8604C205.637 33.4137 205.571 32.9421 205.571 32.4453V32.1582C205.571 31.6615 205.637 31.1921 205.77 30.75C205.906 30.3034 206.109 29.9092 206.378 29.5674C206.651 29.2256 206.993 28.9567 207.403 28.7607C207.818 28.5648 208.303 28.4668 208.859 28.4668C209.438 28.4668 209.944 28.5853 210.377 28.8223C210.81 29.0547 211.149 29.3737 211.396 29.7793C211.646 30.1803 211.783 30.6361 211.806 31.1465H210.603C210.58 30.8411 210.493 30.5654 210.343 30.3193C210.197 30.0732 209.996 29.8773 209.741 29.7314C209.491 29.5811 209.197 29.5059 208.859 29.5059C208.472 29.5059 208.146 29.5833 207.882 29.7383C207.622 29.8887 207.415 30.0938 207.26 30.3535C207.109 30.6087 207 30.8936 206.932 31.208C206.868 31.5179 206.836 31.8346 206.836 32.1582V32.4453C206.836 32.7689 206.868 33.0879 206.932 33.4023C206.995 33.7168 207.103 34.0016 207.253 34.2568C207.408 34.512 207.615 34.7171 207.875 34.8721C208.139 35.0225 208.467 35.0977 208.859 35.0977ZM208.162 36.0684H209.071L208.989 36.4307C209.254 36.4762 209.493 36.5856 209.707 36.7588C209.926 36.932 210.035 37.2168 210.035 37.6133C210.035 37.8275 209.99 38.0212 209.898 38.1943C209.812 38.3721 209.682 38.5225 209.509 38.6455C209.336 38.7731 209.119 38.8711 208.859 38.9395C208.604 39.0078 208.306 39.042 207.964 39.042L207.916 38.3105C208.126 38.3105 208.315 38.2878 208.483 38.2422C208.657 38.1966 208.793 38.1237 208.894 38.0234C208.998 37.9232 209.051 37.7933 209.051 37.6338C209.051 37.4834 209.012 37.3649 208.935 37.2783C208.857 37.1917 208.736 37.1257 208.572 37.0801C208.413 37.0391 208.205 37.0094 207.95 36.9912L208.162 36.0684ZM212.893 32.3838V32.2266C212.893 31.6934 212.97 31.1989 213.125 30.7432C213.28 30.2829 213.503 29.8841 213.795 29.5469C214.087 29.2051 214.44 28.9408 214.854 28.7539C215.269 28.5625 215.734 28.4668 216.249 28.4668C216.769 28.4668 217.236 28.5625 217.65 28.7539C218.07 28.9408 218.425 29.2051 218.717 29.5469C219.013 29.8841 219.239 30.2829 219.394 30.7432C219.549 31.1989 219.626 31.6934 219.626 32.2266V32.3838C219.626 32.917 219.549 33.4115 219.394 33.8672C219.239 34.3229 219.013 34.7217 218.717 35.0635C218.425 35.4007 218.072 35.665 217.657 35.8564C217.247 36.0433 216.782 36.1367 216.263 36.1367C215.743 36.1367 215.276 36.0433 214.861 35.8564C214.447 35.665 214.091 35.4007 213.795 35.0635C213.503 34.7217 213.28 34.3229 213.125 33.8672C212.97 33.4115 212.893 32.917 212.893 32.3838ZM214.157 32.2266V32.3838C214.157 32.7529 214.201 33.1016 214.287 33.4297C214.374 33.7533 214.504 34.0404 214.677 34.291C214.854 34.5417 215.076 34.7399 215.34 34.8857C215.604 35.027 215.912 35.0977 216.263 35.0977C216.609 35.0977 216.912 35.027 217.172 34.8857C217.436 34.7399 217.655 34.5417 217.828 34.291C218.001 34.0404 218.131 33.7533 218.218 33.4297C218.309 33.1016 218.354 32.7529 218.354 32.3838V32.2266C218.354 31.862 218.309 31.5179 218.218 31.1943C218.131 30.8662 217.999 30.5768 217.821 30.3262C217.648 30.071 217.429 29.8704 217.165 29.7246C216.905 29.5788 216.6 29.5059 216.249 29.5059C215.903 29.5059 215.597 29.5788 215.333 29.7246C215.073 29.8704 214.854 30.071 214.677 30.3262C214.504 30.5768 214.374 30.8662 214.287 31.1943C214.201 31.5179 214.157 31.862 214.157 32.2266ZM217.767 25.6367L218.621 25.7119C218.621 26.0446 218.555 26.3363 218.423 26.5869C218.291 26.8376 218.113 27.0312 217.89 27.168C217.671 27.3047 217.423 27.373 217.145 27.373C216.912 27.373 216.721 27.3411 216.57 27.2773C216.42 27.209 216.285 27.1338 216.167 27.0518C216.049 26.9652 215.923 26.89 215.791 26.8262C215.663 26.7578 215.504 26.7236 215.312 26.7236C215.121 26.7236 214.959 26.7965 214.827 26.9424C214.7 27.0882 214.636 27.2682 214.636 27.4824L213.781 27.4414C213.781 27.1087 213.845 26.8171 213.973 26.5664C214.105 26.3112 214.283 26.113 214.506 25.9717C214.729 25.8258 214.978 25.7529 215.251 25.7529C215.447 25.7529 215.618 25.7871 215.764 25.8555C215.914 25.9193 216.055 25.9945 216.188 26.0811C216.32 26.1631 216.456 26.2383 216.598 26.3066C216.739 26.3704 216.901 26.4023 217.083 26.4023C217.274 26.4023 217.436 26.3294 217.568 26.1836C217.701 26.0332 217.767 25.8509 217.767 25.6367ZM224.281 36.1367C223.766 36.1367 223.299 36.0501 222.88 35.877C222.465 35.6992 222.107 35.4508 221.807 35.1318C221.51 34.8128 221.283 34.4346 221.123 33.9971C220.964 33.5596 220.884 33.0811 220.884 32.5615V32.2744C220.884 31.6729 220.973 31.1374 221.15 30.668C221.328 30.194 221.57 29.793 221.875 29.4648C222.18 29.1367 222.527 28.8883 222.914 28.7197C223.301 28.5511 223.702 28.4668 224.117 28.4668C224.646 28.4668 225.102 28.5579 225.484 28.7402C225.872 28.9225 226.188 29.1777 226.435 29.5059C226.681 29.8294 226.863 30.2122 226.981 30.6543C227.1 31.0918 227.159 31.5703 227.159 32.0898V32.6572H221.636V31.625H225.895V31.5293C225.876 31.2012 225.808 30.8822 225.689 30.5723C225.576 30.2624 225.393 30.0072 225.143 29.8066C224.892 29.6061 224.55 29.5059 224.117 29.5059C223.83 29.5059 223.566 29.5674 223.324 29.6904C223.083 29.8089 222.875 29.9867 222.702 30.2236C222.529 30.4606 222.395 30.75 222.299 31.0918C222.203 31.4336 222.155 31.8278 222.155 32.2744V32.5615C222.155 32.9124 222.203 33.2428 222.299 33.5527C222.399 33.8581 222.543 34.127 222.729 34.3594C222.921 34.5918 223.151 34.7741 223.42 34.9062C223.693 35.0384 224.003 35.1045 224.35 35.1045C224.796 35.1045 225.174 35.0133 225.484 34.8311C225.794 34.6488 226.065 34.4049 226.298 34.0996L227.063 34.708C226.904 34.9495 226.701 35.1797 226.455 35.3984C226.209 35.6172 225.906 35.7949 225.546 35.9316C225.19 36.0684 224.769 36.1367 224.281 36.1367ZM232.942 34.0381C232.942 33.8558 232.901 33.6872 232.819 33.5322C232.742 33.3727 232.58 33.2292 232.334 33.1016C232.092 32.9694 231.728 32.8555 231.24 32.7598C230.83 32.6732 230.459 32.5706 230.126 32.4521C229.798 32.3337 229.518 32.1901 229.285 32.0215C229.057 31.8529 228.882 31.6546 228.759 31.4268C228.636 31.1989 228.574 30.9323 228.574 30.627C228.574 30.3353 228.638 30.0596 228.766 29.7998C228.898 29.54 229.082 29.3099 229.319 29.1094C229.561 28.9089 229.85 28.7516 230.188 28.6377C230.525 28.5238 230.901 28.4668 231.315 28.4668C231.908 28.4668 232.414 28.5716 232.833 28.7812C233.252 28.9909 233.574 29.2712 233.797 29.6221C234.02 29.9684 234.132 30.3535 234.132 30.7773H232.867C232.867 30.5723 232.806 30.374 232.683 30.1826C232.564 29.9867 232.389 29.8249 232.156 29.6973C231.928 29.5697 231.648 29.5059 231.315 29.5059C230.965 29.5059 230.68 29.5605 230.461 29.6699C230.247 29.7747 230.09 29.9092 229.989 30.0732C229.894 30.2373 229.846 30.4105 229.846 30.5928C229.846 30.7295 229.868 30.8525 229.914 30.9619C229.964 31.0667 230.051 31.1647 230.174 31.2559C230.297 31.3424 230.47 31.4245 230.693 31.502C230.917 31.5794 231.201 31.6569 231.548 31.7344C232.154 31.8711 232.653 32.0352 233.045 32.2266C233.437 32.418 233.729 32.6527 233.92 32.9307C234.111 33.2087 234.207 33.5459 234.207 33.9424C234.207 34.266 234.139 34.5622 234.002 34.8311C233.87 35.0999 233.676 35.3324 233.421 35.5283C233.17 35.7197 232.869 35.8701 232.519 35.9795C232.172 36.0843 231.783 36.1367 231.35 36.1367C230.698 36.1367 230.146 36.0205 229.695 35.7881C229.244 35.5557 228.902 35.2549 228.67 34.8857C228.438 34.5166 228.321 34.127 228.321 33.7168H229.593C229.611 34.0632 229.711 34.3389 229.894 34.5439C230.076 34.7445 230.299 34.888 230.563 34.9746C230.828 35.0566 231.09 35.0977 231.35 35.0977C231.696 35.0977 231.985 35.0521 232.218 34.9609C232.455 34.8698 232.635 34.7445 232.758 34.585C232.881 34.4255 232.942 34.2432 232.942 34.0381Z" fill="#333333"/>
<path d="M97.8086 51.3164V51.2188C97.8086 49.7995 97.9681 48.5169 98.2871 47.3711C98.6061 46.2188 99.013 45.2096 99.5078 44.3438C100.003 43.4779 100.523 42.7617 101.07 42.1953C101.617 41.6224 102.122 41.209 102.584 40.9551L102.965 42.1465C102.581 42.4395 102.19 42.8431 101.793 43.3574C101.402 43.8717 101.041 44.5033 100.709 45.252C100.383 46.0007 100.12 46.8698 99.918 47.8594C99.7161 48.849 99.6152 49.9622 99.6152 51.1992V51.3359C99.6152 52.5729 99.7161 53.6895 99.918 54.6855C100.12 55.6751 100.383 56.5475 100.709 57.3027C101.041 58.0579 101.402 58.6992 101.793 59.2266C102.19 59.7604 102.581 60.1836 102.965 60.4961L102.584 61.5898C102.122 61.3359 101.617 60.9225 101.07 60.3496C100.523 59.7832 100.003 59.0671 99.5078 58.2012C99.013 57.3418 98.6061 56.3359 98.2871 55.1836C97.9681 54.0312 97.8086 52.7422 97.8086 51.3164ZM113.502 53.1523C113.502 54.0182 113.3 54.7539 112.896 55.3594C112.499 55.9583 111.959 56.4141 111.275 56.7266C110.598 57.0391 109.833 57.1953 108.98 57.1953C108.128 57.1953 107.359 57.0391 106.676 56.7266C105.992 56.4141 105.452 55.9583 105.055 55.3594C104.658 54.7539 104.459 54.0182 104.459 53.1523C104.459 52.5859 104.566 52.0684 104.781 51.5996C105.003 51.1243 105.312 50.7109 105.709 50.3594C106.113 50.0078 106.588 49.7376 107.135 49.5488C107.688 49.3535 108.297 49.2559 108.961 49.2559C109.833 49.2559 110.611 49.4251 111.295 49.7637C111.979 50.0957 112.516 50.5547 112.906 51.1406C113.303 51.7266 113.502 52.3971 113.502 53.1523ZM111.686 53.1133C111.686 52.5859 111.572 52.1204 111.344 51.7168C111.116 51.3066 110.797 50.9876 110.387 50.7598C109.977 50.5319 109.501 50.418 108.961 50.418C108.408 50.418 107.929 50.5319 107.525 50.7598C107.128 50.9876 106.819 51.3066 106.598 51.7168C106.376 52.1204 106.266 52.5859 106.266 53.1133C106.266 53.6602 106.373 54.1289 106.588 54.5195C106.809 54.9036 107.122 55.1999 107.525 55.4082C107.936 55.61 108.421 55.7109 108.98 55.7109C109.54 55.7109 110.022 55.61 110.426 55.4082C110.829 55.1999 111.139 54.9036 111.354 54.5195C111.575 54.1289 111.686 53.6602 111.686 53.1133ZM113.17 46.4824C113.17 47.1725 112.988 47.7943 112.623 48.3477C112.258 48.901 111.76 49.3372 111.129 49.6562C110.497 49.9753 109.781 50.1348 108.98 50.1348C108.167 50.1348 107.441 49.9753 106.803 49.6562C106.171 49.3372 105.676 48.901 105.318 48.3477C104.96 47.7943 104.781 47.1725 104.781 46.4824C104.781 45.6556 104.96 44.9525 105.318 44.373C105.683 43.7936 106.181 43.3509 106.812 43.0449C107.444 42.7389 108.163 42.5859 108.971 42.5859C109.785 42.5859 110.507 42.7389 111.139 43.0449C111.77 43.3509 112.265 43.7936 112.623 44.373C112.988 44.9525 113.17 45.6556 113.17 46.4824ZM111.363 46.5117C111.363 46.0365 111.262 45.6165 111.061 45.252C110.859 44.8874 110.579 44.6009 110.221 44.3926C109.863 44.1777 109.446 44.0703 108.971 44.0703C108.495 44.0703 108.079 44.1712 107.721 44.373C107.369 44.5684 107.092 44.8483 106.891 45.2129C106.695 45.5775 106.598 46.0104 106.598 46.5117C106.598 47 106.695 47.4264 106.891 47.791C107.092 48.1556 107.372 48.4388 107.73 48.6406C108.089 48.8424 108.505 48.9434 108.98 48.9434C109.456 48.9434 109.869 48.8424 110.221 48.6406C110.579 48.4388 110.859 48.1556 111.061 47.791C111.262 47.4264 111.363 47 111.363 46.5117ZM121.725 42.7031V57H119.918V44.959L116.275 46.2871V44.6562L121.441 42.7031H121.725ZM131.393 51.2188V51.3164C131.393 52.7422 131.233 54.0312 130.914 55.1836C130.595 56.3359 130.188 57.3418 129.693 58.2012C129.199 59.0671 128.678 59.7832 128.131 60.3496C127.584 60.9225 127.079 61.3359 126.617 61.5898L126.236 60.4961C126.62 60.2031 127.008 59.793 127.398 59.2656C127.789 58.7448 128.15 58.1003 128.482 57.332C128.814 56.5703 129.081 55.6914 129.283 54.6953C129.485 53.6927 129.586 52.5729 129.586 51.3359V51.1992C129.586 49.9622 129.479 48.8457 129.264 47.8496C129.049 46.847 128.769 45.9648 128.424 45.2031C128.085 44.4414 127.721 43.8001 127.33 43.2793C126.946 42.752 126.581 42.3451 126.236 42.0586L126.617 40.9551C127.079 41.209 127.584 41.6224 128.131 42.1953C128.678 42.7617 129.199 43.4779 129.693 44.3438C130.188 45.2096 130.595 46.2188 130.914 47.3711C131.233 48.5169 131.393 49.7995 131.393 51.2188ZM141.607 49.002H142.896C143.528 49.002 144.049 48.8978 144.459 48.6895C144.876 48.4746 145.185 48.1849 145.387 47.8203C145.595 47.4492 145.699 47.0326 145.699 46.5703C145.699 46.0234 145.608 45.5645 145.426 45.1934C145.243 44.8223 144.97 44.5423 144.605 44.3535C144.241 44.1647 143.779 44.0703 143.219 44.0703C142.711 44.0703 142.262 44.1712 141.871 44.373C141.487 44.5684 141.184 44.8483 140.963 45.2129C140.748 45.5775 140.641 46.0072 140.641 46.502H138.834C138.834 45.7793 139.016 45.1217 139.381 44.5293C139.745 43.9368 140.257 43.4648 140.914 43.1133C141.578 42.7617 142.346 42.5859 143.219 42.5859C144.078 42.5859 144.83 42.7389 145.475 43.0449C146.119 43.3444 146.62 43.7936 146.979 44.3926C147.337 44.985 147.516 45.724 147.516 46.6094C147.516 46.9674 147.431 47.3516 147.262 47.7617C147.099 48.1654 146.842 48.543 146.49 48.8945C146.145 49.2461 145.696 49.5358 145.143 49.7637C144.589 49.985 143.925 50.0957 143.15 50.0957H141.607V49.002ZM141.607 50.4863V49.4023H143.15C144.055 49.4023 144.804 49.5098 145.396 49.7246C145.989 49.9395 146.454 50.2259 146.793 50.584C147.138 50.9421 147.379 51.3359 147.516 51.7656C147.659 52.1888 147.73 52.612 147.73 53.0352C147.73 53.6992 147.617 54.2884 147.389 54.8027C147.167 55.3171 146.852 55.7533 146.441 56.1113C146.038 56.4694 145.562 56.7396 145.016 56.9219C144.469 57.1042 143.873 57.1953 143.229 57.1953C142.61 57.1953 142.027 57.1074 141.48 56.9316C140.94 56.7559 140.462 56.502 140.045 56.1699C139.628 55.8314 139.303 55.418 139.068 54.9297C138.834 54.4349 138.717 53.8717 138.717 53.2402H140.523C140.523 53.735 140.631 54.168 140.846 54.5391C141.067 54.9102 141.38 55.1999 141.783 55.4082C142.193 55.61 142.675 55.7109 143.229 55.7109C143.782 55.7109 144.257 55.6165 144.654 55.4277C145.058 55.2324 145.367 54.9395 145.582 54.5488C145.803 54.1582 145.914 53.6667 145.914 53.0742C145.914 52.4818 145.79 51.9967 145.543 51.6191C145.296 51.235 144.944 50.9518 144.488 50.7695C144.039 50.5807 143.508 50.4863 142.896 50.4863H141.607ZM152.857 49.002H154.146C154.778 49.002 155.299 48.8978 155.709 48.6895C156.126 48.4746 156.435 48.1849 156.637 47.8203C156.845 47.4492 156.949 47.0326 156.949 46.5703C156.949 46.0234 156.858 45.5645 156.676 45.1934C156.493 44.8223 156.22 44.5423 155.855 44.3535C155.491 44.1647 155.029 44.0703 154.469 44.0703C153.961 44.0703 153.512 44.1712 153.121 44.373C152.737 44.5684 152.434 44.8483 152.213 45.2129C151.998 45.5775 151.891 46.0072 151.891 46.502H150.084C150.084 45.7793 150.266 45.1217 150.631 44.5293C150.995 43.9368 151.507 43.4648 152.164 43.1133C152.828 42.7617 153.596 42.5859 154.469 42.5859C155.328 42.5859 156.08 42.7389 156.725 43.0449C157.369 43.3444 157.87 43.7936 158.229 44.3926C158.587 44.985 158.766 45.724 158.766 46.6094C158.766 46.9674 158.681 47.3516 158.512 47.7617C158.349 48.1654 158.092 48.543 157.74 48.8945C157.395 49.2461 156.946 49.5358 156.393 49.7637C155.839 49.985 155.175 50.0957 154.4 50.0957H152.857V49.002ZM152.857 50.4863V49.4023H154.4C155.305 49.4023 156.054 49.5098 156.646 49.7246C157.239 49.9395 157.704 50.2259 158.043 50.584C158.388 50.9421 158.629 51.3359 158.766 51.7656C158.909 52.1888 158.98 52.612 158.98 53.0352C158.98 53.6992 158.867 54.2884 158.639 54.8027C158.417 55.3171 158.102 55.7533 157.691 56.1113C157.288 56.4694 156.812 56.7396 156.266 56.9219C155.719 57.1042 155.123 57.1953 154.479 57.1953C153.86 57.1953 153.277 57.1074 152.73 56.9316C152.19 56.7559 151.712 56.502 151.295 56.1699C150.878 55.8314 150.553 55.418 150.318 54.9297C150.084 54.4349 149.967 53.8717 149.967 53.2402H151.773C151.773 53.735 151.881 54.168 152.096 54.5391C152.317 54.9102 152.63 55.1999 153.033 55.4082C153.443 55.61 153.925 55.7109 154.479 55.7109C155.032 55.7109 155.507 55.6165 155.904 55.4277C156.308 55.2324 156.617 54.9395 156.832 54.5488C157.053 54.1582 157.164 53.6667 157.164 53.0742C157.164 52.4818 157.04 51.9967 156.793 51.6191C156.546 51.235 156.194 50.9518 155.738 50.7695C155.289 50.5807 154.758 50.4863 154.146 50.4863H152.857ZM167.408 42.7031V57H165.602V44.959L161.959 46.2871V44.6562L167.125 42.7031H167.408ZM182.33 52.2148V53.6992H172.057V52.6348L178.424 42.7812H179.898L178.316 45.6328L174.107 52.2148H182.33ZM180.348 42.7812V57H178.541V42.7812H180.348ZM187.926 50.2129V51.6973H183.16V50.2129H187.926ZM191.783 50.2324L190.338 49.8613L191.051 42.7812H198.346V44.4512H192.584L192.154 48.3184C192.415 48.1686 192.743 48.0286 193.141 47.8984C193.544 47.7682 194.007 47.7031 194.527 47.7031C195.185 47.7031 195.774 47.8171 196.295 48.0449C196.816 48.2663 197.258 48.5853 197.623 49.002C197.994 49.4186 198.277 49.9199 198.473 50.5059C198.668 51.0918 198.766 51.7461 198.766 52.4688C198.766 53.1523 198.671 53.7806 198.482 54.3535C198.3 54.9264 198.023 55.4277 197.652 55.8574C197.281 56.2806 196.812 56.6094 196.246 56.8438C195.686 57.0781 195.025 57.1953 194.264 57.1953C193.691 57.1953 193.147 57.1172 192.633 56.9609C192.125 56.7982 191.669 56.554 191.266 56.2285C190.868 55.8965 190.543 55.4863 190.289 54.998C190.042 54.5033 189.885 53.9238 189.82 53.2598H191.539C191.617 53.7936 191.773 54.2428 192.008 54.6074C192.242 54.972 192.548 55.2487 192.926 55.4375C193.31 55.6198 193.756 55.7109 194.264 55.7109C194.693 55.7109 195.074 55.6361 195.406 55.4863C195.738 55.3366 196.018 55.1217 196.246 54.8418C196.474 54.5618 196.646 54.2233 196.764 53.8262C196.887 53.429 196.949 52.9831 196.949 52.4883C196.949 52.0391 196.887 51.6224 196.764 51.2383C196.64 50.8542 196.454 50.5189 196.207 50.2324C195.966 49.946 195.67 49.7246 195.318 49.5684C194.967 49.4056 194.563 49.3242 194.107 49.3242C193.502 49.3242 193.043 49.4056 192.73 49.5684C192.424 49.7311 192.109 49.9525 191.783 50.2324ZM209.674 48.7578V50.9258C209.674 52.0911 209.57 53.0742 209.361 53.875C209.153 54.6758 208.854 55.3203 208.463 55.8086C208.072 56.2969 207.6 56.6517 207.047 56.873C206.5 57.0879 205.882 57.1953 205.191 57.1953C204.645 57.1953 204.14 57.127 203.678 56.9902C203.215 56.8535 202.799 56.6354 202.428 56.3359C202.063 56.0299 201.751 55.6328 201.49 55.1445C201.23 54.6562 201.031 54.0638 200.895 53.3672C200.758 52.6706 200.689 51.8568 200.689 50.9258V48.7578C200.689 47.5924 200.794 46.6159 201.002 45.8281C201.217 45.0404 201.52 44.4089 201.91 43.9336C202.301 43.4518 202.77 43.1068 203.316 42.8984C203.87 42.6901 204.488 42.5859 205.172 42.5859C205.725 42.5859 206.233 42.6543 206.695 42.791C207.164 42.9212 207.581 43.1328 207.945 43.4258C208.31 43.7122 208.619 44.0964 208.873 44.5781C209.133 45.0534 209.332 45.6361 209.469 46.3262C209.605 47.0163 209.674 47.8268 209.674 48.7578ZM207.857 51.2188V48.4551C207.857 47.8171 207.818 47.2572 207.74 46.7754C207.669 46.2871 207.561 45.8704 207.418 45.5254C207.275 45.1803 207.092 44.9004 206.871 44.6855C206.656 44.4707 206.406 44.3145 206.119 44.2168C205.839 44.1126 205.523 44.0605 205.172 44.0605C204.742 44.0605 204.361 44.1419 204.029 44.3047C203.697 44.4609 203.417 44.7116 203.189 45.0566C202.968 45.4017 202.799 45.8542 202.682 46.4141C202.564 46.974 202.506 47.6543 202.506 48.4551V51.2188C202.506 51.8568 202.542 52.4199 202.613 52.9082C202.691 53.3965 202.805 53.8197 202.955 54.1777C203.105 54.5293 203.287 54.819 203.502 55.0469C203.717 55.2747 203.964 55.444 204.244 55.5547C204.531 55.6589 204.846 55.7109 205.191 55.7109C205.634 55.7109 206.021 55.6263 206.354 55.457C206.686 55.2878 206.962 55.0241 207.184 54.666C207.411 54.3014 207.581 53.8359 207.691 53.2695C207.802 52.6966 207.857 52.013 207.857 51.2188ZM214.635 49.002H215.924C216.555 49.002 217.076 48.8978 217.486 48.6895C217.903 48.4746 218.212 48.1849 218.414 47.8203C218.622 47.4492 218.727 47.0326 218.727 46.5703C218.727 46.0234 218.635 45.5645 218.453 45.1934C218.271 44.8223 217.997 44.5423 217.633 44.3535C217.268 44.1647 216.806 44.0703 216.246 44.0703C215.738 44.0703 215.289 44.1712 214.898 44.373C214.514 44.5684 214.212 44.8483 213.99 45.2129C213.775 45.5775 213.668 46.0072 213.668 46.502H211.861C211.861 45.7793 212.044 45.1217 212.408 44.5293C212.773 43.9368 213.284 43.4648 213.941 43.1133C214.605 42.7617 215.374 42.5859 216.246 42.5859C217.105 42.5859 217.857 42.7389 218.502 43.0449C219.146 43.3444 219.648 43.7936 220.006 44.3926C220.364 44.985 220.543 45.724 220.543 46.6094C220.543 46.9674 220.458 47.3516 220.289 47.7617C220.126 48.1654 219.869 48.543 219.518 48.8945C219.173 49.2461 218.723 49.5358 218.17 49.7637C217.617 49.985 216.952 50.0957 216.178 50.0957H214.635V49.002ZM214.635 50.4863V49.4023H216.178C217.083 49.4023 217.831 49.5098 218.424 49.7246C219.016 49.9395 219.482 50.2259 219.82 50.584C220.165 50.9421 220.406 51.3359 220.543 51.7656C220.686 52.1888 220.758 52.612 220.758 53.0352C220.758 53.6992 220.644 54.2884 220.416 54.8027C220.195 55.3171 219.879 55.7533 219.469 56.1113C219.065 56.4694 218.59 56.7396 218.043 56.9219C217.496 57.1042 216.9 57.1953 216.256 57.1953C215.637 57.1953 215.055 57.1074 214.508 56.9316C213.967 56.7559 213.489 56.502 213.072 56.1699C212.656 55.8314 212.33 55.418 212.096 54.9297C211.861 54.4349 211.744 53.8717 211.744 53.2402H213.551C213.551 53.735 213.658 54.168 213.873 54.5391C214.094 54.9102 214.407 55.1999 214.811 55.4082C215.221 55.61 215.702 55.7109 216.256 55.7109C216.809 55.7109 217.285 55.6165 217.682 55.4277C218.085 55.2324 218.395 54.9395 218.609 54.5488C218.831 54.1582 218.941 53.6667 218.941 53.0742C218.941 52.4818 218.818 51.9967 218.57 51.6191C218.323 51.235 217.971 50.9518 217.516 50.7695C217.066 50.5807 216.536 50.4863 215.924 50.4863H214.635ZM232.174 48.7578V50.9258C232.174 52.0911 232.07 53.0742 231.861 53.875C231.653 54.6758 231.354 55.3203 230.963 55.8086C230.572 56.2969 230.1 56.6517 229.547 56.873C229 57.0879 228.382 57.1953 227.691 57.1953C227.145 57.1953 226.64 57.127 226.178 56.9902C225.715 56.8535 225.299 56.6354 224.928 56.3359C224.563 56.0299 224.251 55.6328 223.99 55.1445C223.73 54.6562 223.531 54.0638 223.395 53.3672C223.258 52.6706 223.189 51.8568 223.189 50.9258V48.7578C223.189 47.5924 223.294 46.6159 223.502 45.8281C223.717 45.0404 224.02 44.4089 224.41 43.9336C224.801 43.4518 225.27 43.1068 225.816 42.8984C226.37 42.6901 226.988 42.5859 227.672 42.5859C228.225 42.5859 228.733 42.6543 229.195 42.791C229.664 42.9212 230.081 43.1328 230.445 43.4258C230.81 43.7122 231.119 44.0964 231.373 44.5781C231.633 45.0534 231.832 45.6361 231.969 46.3262C232.105 47.0163 232.174 47.8268 232.174 48.7578ZM230.357 51.2188V48.4551C230.357 47.8171 230.318 47.2572 230.24 46.7754C230.169 46.2871 230.061 45.8704 229.918 45.5254C229.775 45.1803 229.592 44.9004 229.371 44.6855C229.156 44.4707 228.906 44.3145 228.619 44.2168C228.339 44.1126 228.023 44.0605 227.672 44.0605C227.242 44.0605 226.861 44.1419 226.529 44.3047C226.197 44.4609 225.917 44.7116 225.689 45.0566C225.468 45.4017 225.299 45.8542 225.182 46.4141C225.064 46.974 225.006 47.6543 225.006 48.4551V51.2188C225.006 51.8568 225.042 52.4199 225.113 52.9082C225.191 53.3965 225.305 53.8197 225.455 54.1777C225.605 54.5293 225.787 54.819 226.002 55.0469C226.217 55.2747 226.464 55.444 226.744 55.5547C227.031 55.6589 227.346 55.7109 227.691 55.7109C228.134 55.7109 228.521 55.6263 228.854 55.457C229.186 55.2878 229.462 55.0241 229.684 54.666C229.911 54.3014 230.081 53.8359 230.191 53.2695C230.302 52.6966 230.357 52.013 230.357 51.2188Z" fill="#333333"/>
<rect x="9" y="3" width="76" height="82" rx="38" fill="#EFF0E1"/>
<g filter="url(#filter0_d_201_4)">
<circle cx="47" cy="44" r="32" fill="#075E54"/>
</g>
<g clip-path="url(#clip0_201_4)">
<path d="M28 63L30.6838 53.2419C29.0277 50.3856 28.1575 47.1477 28.1591 43.8274C28.1639 33.4471 36.6513 25 47.0795 25C52.1402 25.0016 56.8906 26.9633 60.4637 30.5227C64.0352 34.082 66.0016 38.813 66 43.8448C65.9952 54.2268 57.5078 62.6738 47.0795 62.6738C43.9137 62.6723 40.7939 61.8822 38.0306 60.3812L28 63ZM38.4951 56.9723C41.1614 58.5477 43.7069 59.4913 47.0732 59.4929C55.7403 59.4929 62.8007 52.4724 62.8055 43.8417C62.8087 35.1935 55.7817 28.1825 47.0859 28.1793C38.4124 28.1793 31.3568 35.1998 31.3536 43.829C31.352 47.3519 32.3893 49.9897 34.1313 52.7495L32.542 58.5255L38.4951 56.9723ZM56.6106 48.3209C56.4928 48.1246 56.1778 48.0074 55.7038 47.7715C55.2313 47.5356 52.907 46.3972 52.4727 46.2404C52.0399 46.0837 51.7249 46.0045 51.4084 46.4763C51.0934 46.9466 50.1866 48.0074 49.9113 48.3209C49.6361 48.6344 49.3593 48.674 48.8868 48.4381C48.4143 48.2022 46.8902 47.7066 45.0846 46.1027C43.6798 44.855 42.73 43.3144 42.4548 42.8426C42.1796 42.3723 42.4262 42.1174 42.6616 41.8831C42.8748 41.6725 43.1341 41.3337 43.3712 41.0582C43.6114 40.7858 43.6894 40.5895 43.8484 40.2744C44.0059 39.9609 43.928 39.6854 43.8087 39.4495C43.6894 39.2152 42.7444 36.8988 42.3514 35.9567C41.9664 35.0399 41.5767 35.1634 41.2871 35.1492L40.3803 35.1333C40.0653 35.1333 39.553 35.2505 39.1203 35.7223C38.6876 36.1942 37.4658 37.331 37.4658 39.6474C37.4658 41.9638 39.1601 44.2011 39.3955 44.5146C39.6326 44.8281 42.7285 49.5813 47.4709 51.619C48.5988 52.1035 49.4802 52.3932 50.1659 52.6102C51.2986 52.968 52.3295 52.9173 53.144 52.797C54.0524 52.6624 55.9408 51.6586 56.3353 50.5597C56.7299 49.4593 56.7299 48.5173 56.6106 48.3209Z" fill="white"/>
</g>
<defs>
<filter id="filter0_d_201_4" x="0" y="0" width="94" height="94" filterUnits="userSpaceOnUse" color-interpolation-filters="sRGB">
<feFlood flood-opacity="0" result="BackgroundImageFix"/>
<feColorMatrix in="SourceAlpha" type="matrix" values="0 0 0 0 0 0 0 0 0 0 0 0 0 0 0 0 0 0 127 0" result="hardAlpha"/>
<feOffset dy="3"/>
<feGaussianBlur stdDeviation="7.5"/>
<feColorMatrix type="matrix" values="0 0 0 0 0 0 0 0 0 0 0 0 0 0 0 0 0 0 0.15 0"/>
<feBlend mode="normal" in2="BackgroundImageFix" result="effect1_dropShadow_201_4"/>
<feBlend mode="normal" in="SourceGraphic" in2="effect1_dropShadow_201_4" result="shape"/>
</filter>
<clipPath id="clip0_201_4">
<rect width="38" height="38" fill="white" transform="translate(28 25)"/>
</clipPath>
</defs>
</svg>
